<mxfile host="app.diagrams.net" agent="Mozilla/5.0 (Macintosh; Intel Mac OS X 10_15_7) AppleWebKit/537.36 (KHTML, like Gecko) Chrome/129.0.0.0 Safari/537.36" version="24.7.16">
  <diagram name="Page-1" id="ZbF--gLYY6Q3tEPoUik6">
    <mxGraphModel dx="1026" dy="772" grid="1" gridSize="10" guides="1" tooltips="1" connect="1" arrows="1" fold="1" page="1" pageScale="1" pageWidth="850" pageHeight="1100" math="0" shadow="0">
      <root>
        <mxCell id="0" />
        <mxCell id="1" parent="0" />
        <mxCell id="C5Dbfe9ssZrPEk-CMW97-1" value="" style="rounded=1;whiteSpace=wrap;html=1;fillColor=#dae8fc;strokeColor=#6c8ebf;" vertex="1" parent="1">
          <mxGeometry x="120" y="120" width="160" height="120" as="geometry" />
        </mxCell>
        <mxCell id="C5Dbfe9ssZrPEk-CMW97-2" value="Local Host" style="text;html=1;align=center;verticalAlign=middle;whiteSpace=wrap;rounded=0;fontStyle=1" vertex="1" parent="1">
          <mxGeometry x="160" y="80" width="80" height="30" as="geometry" />
        </mxCell>
        <mxCell id="C5Dbfe9ssZrPEk-CMW97-13" style="edgeStyle=orthogonalEdgeStyle;rounded=0;orthogonalLoop=1;jettySize=auto;html=1;exitX=1;exitY=0.5;exitDx=0;exitDy=0;entryX=0;entryY=0.5;entryDx=0;entryDy=0;endArrow=none;endFill=0;fillColor=#f8cecc;strokeColor=#b85450;strokeWidth=2;" edge="1" parent="1" source="C5Dbfe9ssZrPEk-CMW97-3" target="C5Dbfe9ssZrPEk-CMW97-12">
          <mxGeometry relative="1" as="geometry" />
        </mxCell>
        <mxCell id="C5Dbfe9ssZrPEk-CMW97-3" value="SSH&lt;div&gt;Client&lt;/div&gt;" style="rounded=0;whiteSpace=wrap;html=1;dashed=1;" vertex="1" parent="1">
          <mxGeometry x="200" y="160" width="80" height="40" as="geometry" />
        </mxCell>
        <mxCell id="C5Dbfe9ssZrPEk-CMW97-7" style="edgeStyle=orthogonalEdgeStyle;rounded=0;orthogonalLoop=1;jettySize=auto;html=1;exitX=1;exitY=0.5;exitDx=0;exitDy=0;entryX=0;entryY=0.5;entryDx=0;entryDy=0;endArrow=classic;endFill=1;fillColor=#f8cecc;strokeColor=#b85450;strokeWidth=2;" edge="1" parent="1" source="C5Dbfe9ssZrPEk-CMW97-4" target="C5Dbfe9ssZrPEk-CMW97-5">
          <mxGeometry relative="1" as="geometry" />
        </mxCell>
        <mxCell id="C5Dbfe9ssZrPEk-CMW97-4" value="" style="rounded=1;whiteSpace=wrap;html=1;fillColor=#ffe6cc;strokeColor=#d79b00;" vertex="1" parent="1">
          <mxGeometry x="440" y="120" width="160" height="120" as="geometry" />
        </mxCell>
        <mxCell id="C5Dbfe9ssZrPEk-CMW97-5" value="" style="rounded=1;whiteSpace=wrap;html=1;fillColor=#d5e8d4;strokeColor=#82b366;" vertex="1" parent="1">
          <mxGeometry x="720" y="120" width="160" height="120" as="geometry" />
        </mxCell>
        <mxCell id="C5Dbfe9ssZrPEk-CMW97-6" value="Target Host" style="text;html=1;align=center;verticalAlign=middle;whiteSpace=wrap;rounded=0;fontStyle=1" vertex="1" parent="1">
          <mxGeometry x="760" y="80" width="80" height="30" as="geometry" />
        </mxCell>
        <mxCell id="C5Dbfe9ssZrPEk-CMW97-15" style="edgeStyle=orthogonalEdgeStyle;rounded=0;orthogonalLoop=1;jettySize=auto;html=1;exitX=1;exitY=0.5;exitDx=0;exitDy=0;entryX=0;entryY=0.5;entryDx=0;entryDy=0;endArrow=classic;endFill=1;fillColor=#f8cecc;strokeColor=#b85450;strokeWidth=2;" edge="1" parent="1" source="C5Dbfe9ssZrPEk-CMW97-12" target="C5Dbfe9ssZrPEk-CMW97-4">
          <mxGeometry relative="1" as="geometry" />
        </mxCell>
        <mxCell id="C5Dbfe9ssZrPEk-CMW97-12" value="SSH Tunnel" style="rounded=1;whiteSpace=wrap;html=1;fontStyle=1;fillColor=#f8cecc;strokeColor=#b85450;" vertex="1" parent="1">
          <mxGeometry x="300" y="170" width="120" height="20" as="geometry" />
        </mxCell>
        <mxCell id="C5Dbfe9ssZrPEk-CMW97-17" value="&lt;span style=&quot;font-weight: normal;&quot;&gt;SSH&lt;/span&gt;&lt;div&gt;&lt;span style=&quot;font-weight: normal;&quot;&gt;Server&lt;/span&gt;&lt;/div&gt;" style="rounded=0;whiteSpace=wrap;html=1;fontStyle=1;dashed=1;" vertex="1" parent="1">
          <mxGeometry x="440" y="160" width="80" height="40" as="geometry" />
        </mxCell>
        <mxCell id="C5Dbfe9ssZrPEk-CMW97-18" value="Bastion/Gateway/Relay" style="text;html=1;align=center;verticalAlign=middle;whiteSpace=wrap;rounded=0;fontStyle=1" vertex="1" parent="1">
          <mxGeometry x="450" y="80" width="140" height="30" as="geometry" />
        </mxCell>
        <mxCell id="C5Dbfe9ssZrPEk-CMW97-21" value="&lt;div&gt;&lt;span style=&quot;color: rgb(185, 84, 80);&quot;&gt;target_port&lt;/span&gt;&lt;/div&gt;" style="rounded=0;whiteSpace=wrap;html=1;fontStyle=1;dashed=1;" vertex="1" parent="1">
          <mxGeometry x="720" y="160" width="80" height="40" as="geometry" />
        </mxCell>
        <mxCell id="C5Dbfe9ssZrPEk-CMW97-22" value="listen on: &lt;font color=&quot;#b95450&quot;&gt;local_port&lt;/font&gt;" style="text;html=1;align=center;verticalAlign=middle;whiteSpace=wrap;rounded=0;fontStyle=1" vertex="1" parent="1">
          <mxGeometry x="140" y="210" width="120" height="30" as="geometry" />
        </mxCell>
        <mxCell id="C5Dbfe9ssZrPEk-CMW97-24" value="&lt;div data-hash=&quot;7440b1db4fdb8a5f12096d3cea0d4261&quot; data-version=&quot;3.0.0&quot;&gt;&lt;/div&gt;&lt;div style=&quot;font-size: 16px;&quot; class=&quot;section&quot;&gt;&lt;p style=&quot;text-align:left;line-height:1.5;margin-top:0pt;margin-bottom:0pt;margin-left:0pt;margin-right:0pt&quot; class=&quot;paragraph text-align-type-left&quot;&gt;&lt;span data-font-family=&quot;Monaco&quot; style=&quot;font-family: Monaco; font-weight: normal; font-style: normal; color: rgb(221, 74, 104); letter-spacing: 0pt; vertical-align: baseline;&quot;&gt;ssh&lt;/span&gt;&lt;span data-font-family=&quot;Monaco&quot; style=&quot;font-family: Monaco; font-weight: normal; font-style: normal; color: rgb(0, 0, 0); letter-spacing: 0pt; vertical-align: baseline;&quot;&gt; -L local_port : target_host : target_port&amp;nbsp; user@ssh_server_host&lt;/span&gt;&lt;/p&gt;&lt;/div&gt;" style="text;html=1;align=center;verticalAlign=middle;whiteSpace=wrap;rounded=0;" vertex="1" parent="1">
          <mxGeometry x="150" y="320" width="660" height="80" as="geometry" />
        </mxCell>
        <mxCell id="C5Dbfe9ssZrPEk-CMW97-32" style="rounded=0;orthogonalLoop=1;jettySize=auto;html=1;exitX=0.5;exitY=0;exitDx=0;exitDy=0;entryX=1;entryY=1;entryDx=0;entryDy=0;dashed=1;" edge="1" parent="1" source="C5Dbfe9ssZrPEk-CMW97-29" target="C5Dbfe9ssZrPEk-CMW97-22">
          <mxGeometry relative="1" as="geometry" />
        </mxCell>
        <mxCell id="C5Dbfe9ssZrPEk-CMW97-29" value="" style="rounded=0;whiteSpace=wrap;html=1;fillColor=none;dashed=1;" vertex="1" parent="1">
          <mxGeometry x="222" y="330" width="105" height="60" as="geometry" />
        </mxCell>
        <mxCell id="C5Dbfe9ssZrPEk-CMW97-33" style="rounded=0;orthogonalLoop=1;jettySize=auto;html=1;exitX=0.5;exitY=0;exitDx=0;exitDy=0;dashed=1;entryX=0;entryY=1;entryDx=0;entryDy=0;" edge="1" parent="1" source="C5Dbfe9ssZrPEk-CMW97-30" target="C5Dbfe9ssZrPEk-CMW97-5">
          <mxGeometry relative="1" as="geometry" />
        </mxCell>
        <mxCell id="C5Dbfe9ssZrPEk-CMW97-30" value="" style="rounded=0;whiteSpace=wrap;html=1;fillColor=none;dashed=1;" vertex="1" parent="1">
          <mxGeometry x="345" y="330" width="250" height="60" as="geometry" />
        </mxCell>
        <mxCell id="C5Dbfe9ssZrPEk-CMW97-34" style="rounded=0;orthogonalLoop=1;jettySize=auto;html=1;exitX=0.5;exitY=0;exitDx=0;exitDy=0;entryX=1;entryY=1;entryDx=0;entryDy=0;dashed=1;" edge="1" parent="1" source="C5Dbfe9ssZrPEk-CMW97-31" target="C5Dbfe9ssZrPEk-CMW97-4">
          <mxGeometry relative="1" as="geometry" />
        </mxCell>
        <mxCell id="C5Dbfe9ssZrPEk-CMW97-31" value="" style="rounded=0;whiteSpace=wrap;html=1;fillColor=none;dashed=1;" vertex="1" parent="1">
          <mxGeometry x="605" y="330" width="200" height="60" as="geometry" />
        </mxCell>
        <mxCell id="C5Dbfe9ssZrPEk-CMW97-35" value="作用：在 local_host 上打开并监听 local_port ，然后将发到 local_port 的数据经过 ssh_server 转发到 target_host 上 target_port 中。" style="text;html=1;align=left;verticalAlign=middle;whiteSpace=wrap;rounded=0;" vertex="1" parent="1">
          <mxGeometry x="160" y="400" width="710" height="30" as="geometry" />
        </mxCell>
      </root>
    </mxGraphModel>
  </diagram>
</mxfile>
